<?xml version="1.0" encoding="utf-8"?>
<svg width="20px" height="20px" viewBox="0 0 20 22" version="1.1" xmlns="http://www.w3.org/2000/svg">
  <g>
    <path d="M19.0737529,5.10829837 C18.159627,3.54205128 16.9196737,2.30205128 15.3535664,1.38801865 C13.7872261,0.473939394 12.0772494,0.017016317 10.2224242,0.017016317 C8.36783217,0.017016317 6.65729604,0.474079254 5.09128205,1.38801865 C3.52503497,2.30200466 2.28512821,3.54205128 1.37100233,5.10829837 C0.457016317,6.67449883 0,8.38480186 0,10.2391608 C0,12.4666667 0.64988345,14.469697 1.94997669,16.2487646 C3.24993007,18.027972 4.92927739,19.2591142 6.98787879,19.942331 C7.22750583,19.9868065 7.4048951,19.9555245 7.5202331,19.8492774 C7.63561772,19.7428904 7.69324009,19.6096503 7.69324009,19.4501166 C7.69324009,19.4234965 7.69095571,19.1840093 7.68652681,18.7313753 C7.68195804,18.2787413 7.67981352,17.8838695 7.67981352,17.5469464 L7.37365967,17.5999068 C7.17846154,17.6356643 6.93221445,17.6508159 6.63491841,17.6465268 C6.33776224,17.6423776 6.02927739,17.6112354 5.70988345,17.5533333 C5.39034965,17.4959441 5.09314685,17.3628438 4.81804196,17.1543124 C4.54307692,16.9457809 4.34787879,16.6728205 4.23249417,16.3358508 L4.09939394,16.0295571 C4.01067599,15.825641 3.87100233,15.5991142 3.68018648,15.3508159 C3.48937063,15.1022844 3.29641026,14.9337995 3.10121212,14.8450816 L3.00801865,14.7783683 C2.94592075,14.7340326 2.88829837,14.6805594 2.83501166,14.6185082 C2.78177156,14.5564569 2.74191142,14.494359 2.71529138,14.4321678 C2.68862471,14.3699301 2.71072261,14.3188811 2.78181818,14.2788345 C2.85291375,14.2387879 2.9813986,14.2193473 3.16783217,14.2193473 L3.43393939,14.2591142 C3.61142191,14.2946853 3.83095571,14.4009324 4.09282051,14.5785082 C4.35454545,14.7559441 4.56969697,14.98662 4.73832168,15.2704429 C4.94251748,15.634359 5.18853147,15.911655 5.47706294,16.1024709 C5.76536131,16.2932867 6.0560373,16.3885315 6.34881119,16.3885315 C6.64158508,16.3885315 6.89445221,16.3663403 7.10750583,16.3221911 C7.32032634,16.2778089 7.52,16.2110956 7.70643357,16.1224242 C7.78629371,15.5276457 8.0037296,15.0707226 8.35855478,14.7513287 C7.85282051,14.6981818 7.3981352,14.6181352 6.99426573,14.5117016 C6.59062937,14.4051282 6.17351981,14.2321678 5.74321678,13.9923543 C5.31268065,13.7528671 4.95552448,13.4554779 4.67165501,13.1006993 C4.38773893,12.7457343 4.15473193,12.2797203 3.97296037,11.7030769 C3.79109557,11.1262005 3.70013986,10.4607459 3.70013986,9.70652681 C3.70013986,8.63263403 4.05072261,7.71878788 4.75174825,6.96447552 C4.42335664,6.15710956 4.45435897,5.25202797 4.84484848,4.24932401 C5.10219114,4.16937063 5.48382284,4.22937063 5.98955711,4.42895105 C6.49538462,4.62862471 6.86573427,4.79967366 7.10097902,4.94149184 C7.33622378,5.0832634 7.52470862,5.20340326 7.66671329,5.30083916 C8.49212121,5.07020979 9.34391608,4.95487179 10.222331,4.95487179 C11.1007459,4.95487179 11.9527273,5.07020979 12.7781818,5.30083916 L13.2839627,4.98153846 C13.6298368,4.76848485 14.0382751,4.57324009 14.5082984,4.39575758 C14.9786014,4.2183683 15.3382284,4.16951049 15.5868065,4.24946387 C15.9859674,5.25221445 16.0215385,6.15724942 15.6930536,6.96461538 C16.3940326,7.71892774 16.7447552,8.63300699 16.7447552,9.70666667 C16.7447552,10.4608858 16.6534732,11.1284382 16.4718881,11.7097436 C16.2900699,12.2911422 16.0550583,12.75669 15.7667599,13.107366 C15.4781352,13.4579953 15.1186946,13.7530536 14.6883916,13.9924942 C14.2579953,14.2321212 13.8407459,14.4050816 13.4371096,14.511655 C13.0332867,14.6182284 12.5786014,14.6983217 12.0728671,14.7515618 C12.5341259,15.1507226 12.7648019,15.7807925 12.7648019,16.6414918 L12.7648019,19.4497436 C12.7648019,19.6092774 12.8202797,19.7424709 12.9313287,19.8489044 C13.0422378,19.9551515 13.2173893,19.9864336 13.4570163,19.9419114 C15.5158974,19.2587879 17.1952448,18.0275991 18.4951515,16.2483916 C19.7949184,14.469324 20.445035,12.4662937 20.445035,10.2387879 C20.4445688,8.384662 19.9873193,6.67449883 19.0737529,5.10829837 Z" id="Shape" />
  </g>
</svg>
