<?xml version="1.0" encoding="utf-8"?>
<svg width="20px" height="20px" viewBox="0 0 20 20" version="1.1" xmlns="http://www.w3.org/2000/svg">
  <g>
    <path d="M18.4851508,0 L1.47480278,0 C0.660278422,0 9.28074246e-05,0.640046404 9.28074246e-05,1.4300232 L9.28074246e-05,18.5284455 C9.28074246e-05,19.3184687 0.660510441,19.9590719 1.47480278,19.9590719 L18.4851508,19.9590719 C19.2994896,19.9590719 19.9589327,19.318051 19.9589327,18.5284455 L19.9589327,1.4300232 C19.9589327,0.640278422 19.2994896,0 18.4851508,0 Z M6.05104408,16.7070998 L3.03540603,16.7070998 L3.03540603,7.69582367 L6.05104408,7.69582367 L6.05104408,16.7070998 Z M4.54352668,6.46473318 L4.52324826,6.46473318 C3.51197216,6.46473318 2.85642691,5.77313225 2.85642691,4.90728538 C2.85642691,4.02399072 3.5312297,3.35113689 4.5625522,3.35113689 C5.59396752,3.35113689 6.22839907,4.0238051 6.24844548,4.90728538 C6.24844548,5.77331787 5.59419954,6.46473318 4.54352668,6.46473318 Z M16.9215313,16.7070998 L13.9068677,16.7070998 L13.9068677,11.8857541 C13.9068677,10.6742923 13.4700696,9.84765661 12.3798608,9.84765661 C11.5458469,9.84765661 11.0507657,10.4053364 10.8333643,10.9437587 C10.7528074,11.1360557 10.7328538,11.4050116 10.7328538,11.6735963 L10.7328538,16.7069142 L7.7187471,16.7069142 C7.7187471,16.7069142 7.75819026,8.54083527 7.7187471,7.69568445 L10.7333179,7.69568445 L10.7333179,8.97322506 C11.1335035,8.35935035 11.8486311,7.48366589 13.4495128,7.48366589 C15.4337355,7.48366589 16.9215313,8.77085847 16.9215313,11.54 L16.9215313,16.7070998 Z M10.7138283,9.03476427 C10.7249283,9.01656427 10.7404283,8.99466427 10.7558283,8.97336427 L10.7558283,9.03476427 L10.7138283,9.03476427 Z" id="LinkedIn__x28_alt_x29_" />
  </g>
</svg>
